# xmcd CD database file
# Copyright (C) 1997 Ti Kan
# 
# Track frame offsets:
#     150
#     11073
#     20623
#     31995
#     42143
#     53153
#     62968
#     74353
#     84720
#     97395
#     106748
#     118425
#     127778
#     140548
#     149680
#     159733
#     170668
#     182648
# 
# Disc length: 2549 seconds
# 
# Revision: 1
# Processed by: cddbd v1.4b41PL1 Copyright (c) Steve Scherf et al.
# Submitted via: DiscPlay 4.0.3
# 
DISCID=0d09f312
DTITLE=Chet Atkins - Tennessee Guitar Man
DYEAR=1900
DGENRE=
TTITLE0=Make The World Go Away
TTITLE1=Oh Baby Mine
TTITLE2=Release Me
TTITLE3=The Bells of St. Mary's
TTITLE4=April In Portugal
TTITLE5=Hot Mocking Bird
TTITLE6=San Antonio Rose
TTITLE7=Kicky
TTITLE8=Wabash Cannon Ball
TTITLE9=Foggy Mountain Top
TTITLE10=Bandera
TTITLE11=Yankee Doodle Dixie
TTITLE12=Lonesome Road
TTITLE13=Goin' Down the Road (Feelin' Bad)
TTITLE14=Wildwood Flower
TTITLE15=Oklahoma Hills
TTITLE16=Early Times
TTITLE17=Prancin' Filly
EXTD=
EXTT0=
EXTT1=
EXTT2=
EXTT3=
EXTT4=
EXTT5=
EXTT6=
EXTT7=
EXTT8=
EXTT9=
EXTT10=
EXTT11=
EXTT12=
EXTT13=
EXTT14=
EXTT15=
EXTT16=
EXTT17=
PLAYORDER=
